<svg width="214" height="31" viewBox="0 0 214 31" fill="none" xmlns="http://www.w3.org/2000/svg">
<path d="M8.80682 30L0.852273 0.90909H4.43182L10.5114 24.6023H10.7955L16.9886 0.90909H20.9659L27.1591 24.6023H27.4432L33.5227 0.90909H37.1023L29.1477 30H25.5114L19.0909 6.81818H18.8636L12.4432 30H8.80682ZM50.4915 30V0.90909H68.0483V4.03409H54.0142V13.8636H67.1392V16.9886H54.0142V26.875H68.2756V30H50.4915ZM92.375 30H83.3977V0.90909H92.7727C95.5947 0.90909 98.0095 1.49148 100.017 2.65625C102.025 3.81155 103.563 5.47348 104.634 7.64205C105.704 9.80114 106.239 12.3864 106.239 15.3977C106.239 18.428 105.699 21.0369 104.619 23.2244C103.54 25.4025 101.968 27.0786 99.9034 28.2528C97.839 29.4176 95.3295 30 92.375 30ZM86.9205 26.875H92.1477C94.553 26.875 96.5464 26.411 98.1278 25.483C99.7093 24.5549 100.888 23.2339 101.665 21.5199C102.441 19.8059 102.83 17.7652 102.83 15.3977C102.83 13.0492 102.446 11.0275 101.679 9.33239C100.912 7.62784 99.7661 6.32102 98.2415 5.41193C96.7169 4.49337 94.8182 4.03409 92.5455 4.03409H86.9205V26.875ZM121.148 30V0.90909H138.591V4.03409H124.67V13.8636H137.284V16.9886H124.67V30H121.148ZM178.17 15.4545C178.17 18.5227 177.616 21.1742 176.508 23.4091C175.4 25.6439 173.88 27.3674 171.948 28.5795C170.016 29.7917 167.81 30.3977 165.329 30.3977C162.848 30.3977 160.641 29.7917 158.71 28.5795C156.778 27.3674 155.258 25.6439 154.15 23.4091C153.042 21.1742 152.488 18.5227 152.488 15.4545C152.488 12.3864 153.042 9.73485 154.15 7.5C155.258 5.26515 156.778 3.54167 158.71 2.32955C160.641 1.11742 162.848 0.511363 165.329 0.511363C167.81 0.511363 170.016 1.11742 171.948 2.32955C173.88 3.54167 175.4 5.26515 176.508 7.5C177.616 9.73485 178.17 12.3864 178.17 15.4545ZM174.761 15.4545C174.761 12.9356 174.339 10.8097 173.496 9.0767C172.663 7.34375 171.531 6.0322 170.102 5.14205C168.681 4.25189 167.09 3.80682 165.329 3.80682C163.567 3.80682 161.972 4.25189 160.542 5.14205C159.121 6.0322 157.99 7.34375 157.147 9.0767C156.314 10.8097 155.897 12.9356 155.897 15.4545C155.897 17.9735 156.314 20.0994 157.147 21.8324C157.99 23.5653 159.121 24.8769 160.542 25.767C161.972 26.6572 163.567 27.1023 165.329 27.1023C167.09 27.1023 168.681 26.6572 170.102 25.767C171.531 24.8769 172.663 23.5653 173.496 21.8324C174.339 20.0994 174.761 17.9735 174.761 15.4545ZM193.093 30V0.90909H202.923C205.195 0.90909 207.061 1.29735 208.519 2.07386C209.978 2.84091 211.057 3.89678 211.758 5.24148C212.459 6.58617 212.809 8.11553 212.809 9.82955C212.809 11.5436 212.459 13.0634 211.758 14.3892C211.057 15.715 209.982 16.7566 208.533 17.5142C207.085 18.2623 205.233 18.6364 202.979 18.6364H195.025V15.4545H202.866C204.419 15.4545 205.669 15.2273 206.616 14.7727C207.572 14.3182 208.263 13.6742 208.69 12.8409C209.125 11.9981 209.343 10.9943 209.343 9.82955C209.343 8.66477 209.125 7.64678 208.69 6.77557C208.254 5.90436 207.558 5.23201 206.602 4.75852C205.645 4.27557 204.381 4.03409 202.809 4.03409H196.616V30H193.093ZM206.786 16.9318L213.945 30H209.854L202.809 16.9318H206.786Z" fill="black"/>
</svg>
